<?xml version="1.0" encoding="utf-8"?>
<!-- Generator: Adobe Illustrator 19.0.0, SVG Export Plug-In . SVG Version: 6.00 Build 0)  -->
<svg version="1.1" id="Layer_1" xmlns="http://www.w3.org/2000/svg" xmlns:xlink="http://www.w3.org/1999/xlink" x="0px" y="0px"
	 viewBox="0 0 1190.6 841.9" style="enable-background:new 0 0 1190.6 841.9;" xml:space="preserve">
<style type="text/css">
	.st0{fill:#FFFFFF;}
	.st1{fill:#D12A2F;}
</style>
<rect id="XMLID_5_" x="304.3" y="170.1" width="582" height="501.7"/>
<g id="D_guitar">
	<path id="XMLID_3_" class="st0" d="M493.2,403.1c8.3-38.1,42.3-66.9,82.6-67c10.5,0,20.8,1.8,30.5,5.5c15.6,6,29.1,16.3,38.8,30
		c1.1,1.6,3,2.5,5,2.3c7.5-0.9,14.8-10.4,17.3-18.7c0.6-1.9,2.2-3.3,4.2-3.6c1.6-0.2,3.2-0.4,4.8-0.4c9.2,0,18,4,24.1,10.8
		c0.9,1,1.1,2.3,0.7,3.5c-0.4,1-1.2,1.8-2.2,2.2c-14.3,5.8-24.5,18.8-26.9,34c-0.1,1-0.1,2.1,0.6,2.9c0.6,0.8,1.4,1.2,2.8,1.2h110.8
		c-7.6-76.4-73.1-135.8-151.5-135.8H404.3v21.7C404.3,346.2,442.3,391.7,493.2,403.1z"/>
	<path id="XMLID_4_" class="st1" d="M672.9,437.4c-0.6,0.7-0.9,1.8-0.8,2.7c1.8,19.6,17.2,35.6,36.7,38c1,0.1,1.8,0.8,2.1,1.8
		c0.2,0.9,0,1.8-0.7,2.4c-5.5,5.8-12.9,9-20.9,9c-8.7,0-16.9-3.9-22.4-10.6l-0.2-0.3c-0.1-0.1-0.2-0.3-0.3-0.4
		c-0.1-0.1-0.1-0.2-0.2-0.3l0.3-0.4l-0.4,0.3c-4.9-6.1-11.7-10.5-19.1-12.5c-3.1-0.8-6.2-1.2-9.4-1.2c-19.8,0-36.2,16.1-36.7,35.9
		l0,0.3l-0.3,0.1c-7.9,2.4-16.1,3.6-24.4,3.6c-22.9,0-44.3-9-60.4-25.3c-11.5-11.6-19.2-26-22.5-41.6
		c-50.9,11.5-88.9,56.9-88.9,111.3v21.5h231.9c78.1,0,142.4-59.4,150.1-135.6H675.9C674.5,436.2,673.5,436.7,672.9,437.4z"/>
</g>
</svg>
