<svg width="300" height="61" viewBox="0 0 300 61" fill="none" xmlns="http://www.w3.org/2000/svg">
<g clip-path="url(#clip0_695_14)">
<path d="M284.71 36.9094H288.72C291.422 36.9094 294.013 35.8333 295.924 33.9176C297.834 32.002 298.907 29.4039 298.907 26.6948V19.531C298.907 16.822 297.834 14.2238 295.924 12.3082C294.013 10.3926 291.422 9.31641 288.72 9.31641H249.055V51.7648H253.832C256.534 51.7648 259.125 50.6886 261.035 48.773C262.946 46.8574 264.019 44.2592 264.019 41.5502V37.2374H267.105L276.556 47.116C277.811 48.5747 279.364 49.7451 281.111 50.5473C282.857 51.3495 284.755 51.7648 286.676 51.7648H299.999L284.71 36.9094ZM283.467 25.7576C283.467 26.5316 283.16 27.2739 282.615 27.8213C282.069 28.3686 281.328 28.6761 280.556 28.6761H264.019V19.4015H280.556C281.328 19.4015 282.069 19.709 282.615 20.2563C283.16 20.8037 283.467 21.546 283.467 22.32V25.7576Z" fill="white"/>
<path d="M100.089 19.3694H120.265C122.924 19.3692 125.474 18.31 127.354 16.4247C129.234 14.5394 130.29 11.9825 130.29 9.31641H91.6873C88.9855 9.31641 86.3943 10.3926 84.4838 12.3082C82.5733 14.2238 81.5 16.822 81.5 19.531V41.5502C81.5 44.2592 82.5733 46.8574 84.4838 48.773C86.3943 50.6886 88.9855 51.7648 91.6873 51.7648H130.29C130.29 49.0986 129.234 46.5415 127.353 44.6562C125.473 42.7709 122.923 41.7118 120.264 41.7118H100.089C99.317 41.7118 98.5767 41.4043 98.0308 40.857C97.485 40.3097 97.1783 39.5673 97.1783 38.7933V35.7526H124.811V25.3286H97.1783V22.2879C97.1783 21.5139 97.485 20.7716 98.0308 20.2242C98.5767 19.6769 99.317 19.3694 100.089 19.3694Z" fill="white"/>
<path d="M178.147 19.5603V38.7635C178.147 39.5375 177.84 40.2799 177.295 40.8272C176.749 41.3745 176.008 41.682 175.236 41.682H170.183V13.7803H156.976V41.682H151.921C151.149 41.682 150.409 41.3745 149.863 40.8272C149.317 40.2799 149.011 39.5375 149.011 38.7635V19.5603C149.011 16.8513 147.937 14.2531 146.027 12.3375C144.116 10.4219 141.525 9.3457 138.823 9.3457H133.57V41.5196C133.57 44.2287 134.644 46.8269 136.554 48.7425C138.465 50.6581 141.056 51.7343 143.758 51.7343H183.4C186.102 51.7343 188.693 50.6581 190.604 48.7425C192.514 46.8269 193.587 44.2287 193.587 41.5196V9.3457H188.334C185.633 9.3457 183.041 10.4219 181.131 12.3375C179.22 14.2531 178.147 16.8513 178.147 19.5603Z" fill="white"/>
<path d="M235.59 9.3457H207.055C204.353 9.3457 201.761 10.4219 199.851 12.3375C197.94 14.2531 196.867 16.8513 196.867 19.5603V51.7343H202.341C205 51.7343 207.55 50.6752 209.43 48.7901C211.311 46.9049 212.367 44.3481 212.367 41.682H230.277C230.277 44.3481 231.333 46.905 233.213 48.7903C235.094 50.6755 237.644 51.7346 240.303 51.7346H245.777V19.5603C245.777 18.2189 245.513 16.8907 245.001 15.6514C244.489 14.4121 243.739 13.286 242.793 12.3375C241.847 11.389 240.724 10.6366 239.488 10.1232C238.252 9.60991 236.927 9.3457 235.59 9.3457ZM230.278 32.7923H212.367V22.3172C212.367 21.5432 212.674 20.8009 213.22 20.2535C213.766 19.7062 214.506 19.3987 215.278 19.3987H227.366C228.138 19.3987 228.879 19.7062 229.424 20.2535C229.97 20.8009 230.277 21.5432 230.277 22.3172L230.278 32.7923Z" fill="white"/>
<path d="M17.9319 26.9003C18.7685 23.0822 20.8733 19.6622 23.9015 17.2002C26.9298 14.7382 30.702 13.3801 34.6005 13.3483C37.3364 13.3363 40.0351 13.9831 42.4698 15.2343C44.9045 16.4856 47.004 18.3047 48.5917 20.5387C48.7031 20.6984 48.855 20.8254 49.0318 20.9065C49.2085 20.9877 49.4036 21.02 49.597 21.0002C51.1 20.8178 52.5804 18.8971 53.0931 17.2208C53.1524 17.0327 53.2632 16.8651 53.4129 16.7372C53.5626 16.6092 53.7451 16.526 53.9397 16.497C55.0099 16.3358 56.1033 16.4454 57.1204 16.8159C58.1375 17.1864 59.0461 17.806 59.7636 18.6184C59.8481 18.7133 59.9056 18.8294 59.9299 18.9543C59.9542 19.0792 59.9445 19.2084 59.9018 19.3283C59.8625 19.4295 59.8023 19.5211 59.725 19.5971C59.6477 19.6732 59.5552 19.7319 59.4536 19.7693C58.0368 20.3515 56.7939 21.2903 55.8448 22.495C54.8958 23.6997 54.2728 25.1296 54.0361 26.6464C54.015 26.7453 54.0141 26.8476 54.0335 26.9469C54.053 27.0463 54.0924 27.1406 54.1493 27.2242C54.216 27.3065 54.3016 27.3714 54.3987 27.4134C54.4958 27.4555 54.6015 27.4734 54.707 27.4657H77.0446C75.5026 12.007 62.3093 0 46.4866 0H0V4.39121C0.00048434 9.62592 1.77553 14.705 5.03387 18.795C8.2922 22.8851 12.8403 25.7431 17.9319 26.9003Z" fill="white"/>
<path d="M54.1678 33.8243C54.0456 33.9782 53.9871 34.1734 54.0045 34.3693C54.1879 36.3016 55.0198 38.1142 56.3642 39.5108C57.7086 40.9073 59.4858 41.8051 61.4052 42.0573C61.5048 42.0698 61.5984 42.1117 61.6741 42.1776C61.7499 42.2435 61.8045 42.3305 61.8309 42.4276C61.8524 42.5137 61.8516 42.604 61.8284 42.6897C61.8052 42.7754 61.7605 42.8537 61.6984 42.9172C61.1286 43.5175 60.4379 43.9894 59.6722 44.3014C58.9066 44.6135 58.0834 44.7586 57.2575 44.7271C56.4315 44.6956 55.6217 44.4882 54.8819 44.1187C54.1421 43.7492 53.4891 43.2261 52.9665 42.5841L52.9206 42.5264C52.8959 42.4987 52.8737 42.4688 52.8511 42.4393C52.8377 42.4221 52.8246 42.4046 52.8111 42.3878L52.8719 42.3127L52.7991 42.3707C51.8482 41.1853 50.5567 40.3218 49.0997 39.8973C47.6428 39.4729 46.0909 39.5079 44.6545 39.9978C43.2181 40.4877 41.9667 41.4086 41.07 42.6358C40.1733 43.8629 39.6747 45.3369 39.6418 46.8578V46.9253L39.5778 46.9446C37.3181 47.6235 34.9429 47.8267 32.6012 47.5416C30.2594 47.2565 28.0018 46.4893 25.9698 45.2879C23.9378 44.0866 22.1753 42.4772 20.793 40.5606C19.4107 38.644 18.4383 36.4616 17.937 34.1504C12.8445 35.3066 8.29537 38.1642 5.03605 42.2542C1.77673 46.3443 0.00089456 51.4238 0 56.6591V60.9982H46.778C54.3127 60.9979 61.5792 58.1941 67.1703 53.1297C72.7613 48.0652 76.2791 41.1006 77.0424 33.5846H54.7729C54.661 33.5802 54.5493 33.5992 54.4451 33.6405C54.341 33.6817 54.2465 33.7443 54.1678 33.8243Z" fill="#D02C2F"/>
</g>
<defs>
<clipPath id="clip0_695_14">
<rect width="300" height="61" fill="white"/>
</clipPath>
</defs>
</svg>
