<?xml version="1.0" encoding="utf-8"?>
<!-- Generator: Adobe Illustrator 19.0.0, SVG Export Plug-In . SVG Version: 6.00 Build 0)  -->
<svg version="1.1" id="Layer_1" xmlns="http://www.w3.org/2000/svg" xmlns:xlink="http://www.w3.org/1999/xlink" x="0px" y="0px"
	 viewBox="0 0 1190.6 841.9" style="enable-background:new 0 0 1190.6 841.9;" xml:space="preserve">
<style type="text/css">
	.st0{fill:#111820;}
	.st1{fill:#D12A2F;}
	.st2{fill:#FFFFFF;}
</style>
<rect id="XMLID_5_" x="110.7" y="49.5" class="st0" width="969.2" height="743"/>
<path id="GUITARS" class="st1" d="M835.3,658.7c-0.9-0.7-1.9-1-3.1-1h-4.6v13.3h4.7c1.2,0,2.2-0.3,3.1-1c0.9-0.7,1.3-1.5,1.3-2.6
	v-6.1C836.6,660.2,836.2,659.4,835.3,658.7z M713.5,658.7c-0.9-0.7-1.9-1-3.1-1c-1.2,0-2.2,0.3-3.1,1c-0.8,0.7-1.3,1.5-1.3,2.6v9.2
	h8.8v-9.2C714.9,660.2,714.4,659.4,713.5,658.7z M248.9,666.7h-7.6v-6c0-1.8-1.5-2.7-4.4-2.7s-4.4,0.9-4.4,2.7v24.1
	c0,1,0.4,1.9,1.3,2.5c0.9,0.6,1.9,1,3.1,1c1.2,0,2.2-0.3,3.1-1c0.9-0.7,1.3-1.5,1.3-2.5v-9h-4.6v-5h12.2v14.1c0,2.2-0.9,3.9-2.6,5.2
	c-2.1,1.6-5.2,2.4-9.3,2.4c0,0,0,0,0,0c0,0,0,0,0,0c-4.1,0-7.3-0.8-9.3-2.4c-1.8-1.3-2.6-3.1-2.6-5.2v-23.4c0-2.5,1-4.4,3.1-5.8
	c2.1-1.3,4.9-2,8.4-2c0.2,0,0.3,0,0.5,0c0.2,0,0.3,0,0.5,0c3.5,0,6.3,0.7,8.4,2c2.1,1.3,3.1,3.3,3.1,5.8V666.7z M370.4,684.8
	c0,2.2-0.9,3.9-2.6,5.2c-2.1,1.6-5.2,2.4-9.4,2.4c-4.1,0-7.3-0.8-9.3-2.4c-1.8-1.3-2.6-3.1-2.6-5.2v-31.2h7.6v31.2
	c0,1,0.4,1.9,1.3,2.5c0.8,0.7,1.9,1,3,1c1.2,0,2.2-0.3,3.1-1c0.9-0.7,1.4-1.5,1.4-2.5v-31.2h7.6V684.8z M476.2,692.4h-7.6v-38.8h7.6
	V692.4z M601.3,658.7h-10v33.7h-7.6v-33.7h-10v-5h27.7V658.7z M722.5,692.4h-7.6v-17h-8.8v17h-7.6v-31.2c0-2.2,0.9-3.9,2.6-5.2
	c2.1-1.6,5.2-2.4,9.3-2.4c4.1,0,7.3,0.8,9.4,2.4c1.8,1.3,2.6,3.1,2.6,5.2V692.4z M844.3,667.3c0,2.4-1.1,4.3-3.2,5.6
	c2.1,1.3,3.2,3.2,3.2,5.6v14h-7.6v-14c0-1-0.4-1.9-1.3-2.5c-0.9-0.7-1.9-1-3.1-1.1h-4.7v17.5H820v-38.8h12.2c4.1,0,7.3,0.8,9.4,2.4
	c1.8,1.3,2.6,3.1,2.6,5.2V667.3z M965.6,667.6H958v-6.4c0-1-0.4-1.8-1.3-2.5c-0.9-0.6-1.9-0.9-3.1-1c-1.2,0-2.2,0.3-3.1,1
	c-0.9,0.6-1.3,1.5-1.3,2.5v6.4c0,2.2,1.1,3.4,3.2,3.5h2.5c5.4,0,8.1,2.1,8.1,2.1c1.5,1.1,2.4,2.6,2.6,4.7v7.1c0,2.1-0.9,3.8-2.6,5.2
	c-2.1,1.6-5.2,2.4-9.3,2.4c0,0,0,0,0,0c0,0,0,0,0,0c-4.1,0-7.3-0.8-9.3-2.4c-1.8-1.3-2.6-3-2.6-5.2v-6.2h7.6v6.2
	c0,1,0.4,1.8,1.3,2.5c0.9,0.6,1.9,0.9,3.1,1c1.2,0,2.2-0.3,3.1-1c0.9-0.6,1.3-1.5,1.3-2.5v-6.2c0-2.2-1.1-3.4-3.2-3.5h-2.5
	c-5.9,0-8.1-2.1-8.1-2.1c-1.5-1.1-2.4-2.6-2.6-4.7v-7.3c0-2.1,0.9-3.8,2.6-5.2c2.1-1.6,5.2-2.4,9.3-2.4c0,0,0,0,0,0c0,0,0,0,0,0
	c4.1,0,7.3,0.8,9.3,2.4c1.8,1.3,2.6,3,2.6,5.2V667.6z"/>
<g id="DEWAR">
	<path id="XMLID_38_" class="st2" d="M937.9,591.9h11c15.5,0,28-12.5,28-28v-19.6c0-15.5-12.5-28-28-28h-109v116.4H853
		c15.5,0,28-12.5,28-28v-11.8h8.5l26,27.1c7,8.1,17.1,12.7,27.8,12.7h36.6L937.9,591.9z M934.5,561.3c0,4.4-3.6,8-8,8H881h0v-25.4
		h45.5c4.4,0,8,3.6,8,8V561.3z"/>
	<path id="XMLID_39_" class="st2" d="M430.4,543.8h55.5c15.2,0,27.6-12.3,27.6-27.6H407.3c-15.5,0-28,12.5-28,28v0.9v58.6v0.9
		c0,15.5,12.5,28,28,28h106.1v0c0-15.2-12.3-27.6-27.6-27.6h-55.5c-4.4,0-8-3.6-8-8v-8.3h75.9v-28.6h-75.9v-8.3
		C422.4,547.4,426,543.8,430.4,543.8z"/>
	<path id="XMLID_40_" class="st2" d="M645,544.4V597c0,4.4-3.6,8-8,8h-13.9v-76.5h-36.3V605h-13.9c-4.4,0-8-3.6-8-8v-52.6
		c0-15.5-12.5-28-28-28h-14.4v88.2c0,15.5,12.5,28,28,28h109c15.5,0,28-12.5,28-28v-88.2H673C657.5,516.4,645,528.9,645,544.4z"/>
	<path id="XMLID_43_" class="st2" d="M802.9,516.4h-78.4c-15.5,0-28,12.5-28,28v88.2h15c15.2,0,27.6-12.3,27.6-27.6h49.2
		c0,15.2,12.3,27.6,27.6,27.6h15v-88.2C830.9,528.9,818.3,516.4,802.9,516.4z M788.3,580.6H739v-28.7c0-4.4,3.6-8,8-8h33.2
		c4.4,0,8,3.6,8,8V580.6z"/>
	<path id="XMLID_46_" class="st2" d="M342.3,516.4H210.7c0,10.4,5.8,19.4,14.3,24.1v67.9c-8.5,4.7-14.3,13.7-14.3,24.1v0h131.7
		c15.5,0,28-12.5,28-28v-60C370.3,529,357.8,516.4,342.3,516.4z M325.9,597c0,4.4-3.6,8-8,8h-48.5v-61.1h48.5c4.4,0,8,3.6,8,8V597z"
		/>
</g>
<g id="D_guitar">
	<path id="XMLID_3_" class="st2" d="M492.8,282.5c8.3-38.1,42.3-66.9,82.6-67c10.5,0,20.8,1.8,30.5,5.5c15.6,6,29.1,16.3,38.8,30
		c1.1,1.6,3,2.5,5,2.3c7.5-0.9,14.8-10.4,17.3-18.7c0.6-1.9,2.2-3.3,4.2-3.6c1.6-0.2,3.2-0.4,4.8-0.4c9.2,0,18,4,24.1,10.8
		c0.9,1,1.1,2.3,0.7,3.5c-0.4,1-1.2,1.8-2.2,2.2c-14.3,5.8-24.5,18.8-26.9,34c-0.1,1-0.1,2.1,0.6,2.9c0.6,0.8,1.4,1.2,2.8,1.2h110.8
		c-7.6-76.4-73.1-135.8-151.5-135.8H403.9v21.7C403.9,225.5,441.9,271,492.8,282.5z"/>
	<path id="XMLID_4_" class="st1" d="M672.5,316.7c-0.6,0.7-0.9,1.8-0.8,2.7c1.8,19.6,17.2,35.6,36.7,38c1,0.1,1.8,0.8,2.1,1.8
		c0.2,0.9,0,1.8-0.7,2.4c-5.5,5.8-12.9,9-20.9,9c-8.7,0-16.9-3.9-22.4-10.6l-0.2-0.3c-0.1-0.1-0.2-0.3-0.3-0.4
		c-0.1-0.1-0.1-0.2-0.2-0.3l0.3-0.4l-0.4,0.3c-4.9-6.1-11.7-10.5-19.1-12.5c-3.1-0.8-6.2-1.2-9.4-1.2c-19.8,0-36.2,16.1-36.7,35.9
		l0,0.3l-0.3,0.1c-7.9,2.4-16.1,3.6-24.4,3.6c-22.9,0-44.3-9-60.4-25.3c-11.5-11.6-19.2-26-22.5-41.6
		c-50.9,11.5-88.9,56.9-88.9,111.3v21.5h231.9c78.1,0,142.4-59.4,150.1-135.6H675.5C674.1,315.5,673.1,316.1,672.5,316.7z"/>
</g>
</svg>
