<svg width="300" height="212" viewBox="0 0 300 212" fill="none" xmlns="http://www.w3.org/2000/svg">
<path d="M210.473 165.868C210.246 165.692 209.994 165.616 209.692 165.616H208.533V168.966H209.717C210.02 168.966 210.272 168.89 210.498 168.714C210.725 168.537 210.826 168.336 210.826 168.059V166.523C210.801 166.246 210.7 166.044 210.473 165.868ZM179.783 165.868C179.556 165.692 179.304 165.616 179.002 165.616C178.699 165.616 178.447 165.692 178.221 165.868C178.019 166.044 177.893 166.246 177.893 166.523V168.84H180.11V166.523C180.136 166.246 180.01 166.044 179.783 165.868ZM62.7157 167.883H60.8007V166.372C60.8007 165.919 60.4228 165.692 59.692 165.692C58.9613 165.692 58.5834 165.919 58.5834 166.372V172.441C58.5834 172.692 58.6841 172.919 58.9109 173.07C59.1377 173.221 59.3897 173.322 59.692 173.322C59.9944 173.322 60.2464 173.246 60.4732 173.07C60.6999 172.894 60.8007 172.692 60.8007 172.441V170.174H59.6416V168.915H62.7157V172.466C62.7157 173.02 62.4889 173.448 62.0606 173.775C61.5314 174.178 60.7503 174.379 59.7172 174.379C58.6841 174.379 57.8778 174.178 57.3739 173.775C56.9203 173.448 56.7188 172.994 56.7188 172.466V166.573C56.7188 165.944 56.9707 165.465 57.4999 165.113C58.029 164.785 58.7345 164.609 59.6164 164.609C59.6668 164.609 59.692 164.609 59.7424 164.609C59.7928 164.609 59.818 164.609 59.8684 164.609C60.7503 164.609 61.4559 164.785 61.985 165.113C62.5141 165.44 62.7661 165.944 62.7661 166.573V167.883H62.7157ZM93.3305 172.441C93.3305 172.994 93.1038 173.423 92.6754 173.75C92.1463 174.153 91.3651 174.354 90.3069 174.354C89.2738 174.354 88.4674 174.153 87.9635 173.75C87.5099 173.423 87.3084 172.969 87.3084 172.441V164.584H89.2234V172.441C89.2234 172.692 89.3242 172.919 89.5509 173.07C89.7525 173.246 90.0297 173.322 90.3069 173.322C90.6092 173.322 90.8612 173.246 91.088 173.07C91.3147 172.894 91.4407 172.692 91.4407 172.441V164.584H93.3557V172.441H93.3305ZM119.989 174.354H118.074V164.584H119.989V174.354ZM151.511 165.868H148.992V174.354H147.077V165.868H144.557V164.609H151.536V165.868H151.511ZM182.051 174.354H180.136V170.073H177.918V174.354H176.003V166.498C176.003 165.944 176.23 165.516 176.658 165.188C177.187 164.785 177.969 164.584 179.002 164.584C180.035 164.584 180.841 164.785 181.37 165.188C181.824 165.516 182.025 165.969 182.025 166.498V174.354H182.051ZM212.741 168.034C212.741 168.638 212.464 169.117 211.935 169.444C212.464 169.771 212.741 170.25 212.741 170.854V174.379H210.826V170.854C210.826 170.602 210.725 170.376 210.498 170.225C210.272 170.048 210.02 169.973 209.717 169.948H208.533V174.354H206.618V164.584H209.692C210.725 164.584 211.531 164.785 212.061 165.188C212.514 165.516 212.716 165.969 212.716 166.498V168.034H212.741ZM243.305 168.109H241.39V166.498C241.39 166.246 241.29 166.044 241.063 165.868C240.836 165.717 240.584 165.642 240.282 165.616C239.979 165.616 239.727 165.692 239.501 165.868C239.274 166.019 239.173 166.246 239.173 166.498V168.109C239.173 168.663 239.45 168.966 239.979 168.991H240.609C241.97 168.991 242.65 169.519 242.65 169.519C243.028 169.796 243.255 170.174 243.305 170.703V172.491C243.305 173.02 243.079 173.448 242.65 173.8C242.121 174.203 241.34 174.405 240.307 174.405C239.274 174.405 238.467 174.203 237.964 173.8C237.51 173.473 237.308 173.045 237.308 172.491V170.93H239.223V172.491C239.223 172.743 239.324 172.944 239.551 173.12C239.778 173.271 240.03 173.347 240.332 173.372C240.634 173.372 240.886 173.297 241.113 173.12C241.34 172.969 241.441 172.743 241.441 172.491V170.93C241.441 170.376 241.164 170.073 240.634 170.048H240.004C238.518 170.048 237.964 169.519 237.964 169.519C237.586 169.243 237.359 168.865 237.308 168.336V166.498C237.308 165.969 237.535 165.541 237.964 165.188C238.493 164.785 239.274 164.584 240.307 164.584C241.34 164.584 242.146 164.785 242.65 165.188C243.104 165.516 243.305 165.944 243.305 166.498V168.109Z" fill="#D12A2F"/>
<path d="M236.326 149.047H239.098C243.004 149.047 246.153 145.899 246.153 141.996V137.06C246.153 133.157 243.004 130.01 239.098 130.01H211.633V159.321H214.934C218.839 159.321 221.989 156.173 221.989 152.27V149.299H224.131L230.682 156.123C232.446 158.162 234.991 159.321 237.687 159.321H246.909L236.326 149.047ZM235.47 141.341C235.47 142.449 234.562 143.356 233.454 143.356H221.989V136.96H233.454C234.562 136.96 235.47 137.866 235.47 138.974V141.341Z" fill="white"/>
<path d="M108.454 136.934H122.439C126.269 136.934 129.393 133.837 129.393 129.984H102.633C98.7278 129.984 95.5781 133.132 95.5781 137.035V137.262V152.018V152.244C95.5781 156.148 98.7278 159.295 102.633 159.295H129.368C129.368 155.468 126.269 152.345 122.413 152.345H108.429C107.32 152.345 106.413 151.439 106.413 150.331V148.241H125.538V141.039H106.413V138.949C106.438 137.841 107.345 136.934 108.454 136.934Z" fill="white"/>
<path d="M162.523 137.086V150.331C162.523 151.439 161.616 152.346 160.507 152.346H157.005V133.082H147.858V152.346H144.356C143.247 152.346 142.34 151.439 142.34 150.331V137.086C142.34 133.183 139.19 130.035 135.285 130.035H131.656V152.245C131.656 156.148 134.806 159.296 138.712 159.296H166.177C170.082 159.296 173.232 156.148 173.232 152.245V130.035H169.578C165.673 130.035 162.523 133.183 162.523 137.086Z" fill="white"/>
<path d="M202.31 130.035H182.555C178.65 130.035 175.5 133.183 175.5 137.086V159.296H179.28C183.11 159.296 186.234 156.198 186.234 152.346H198.631C198.631 156.173 201.73 159.296 205.586 159.296H209.365V137.086C209.365 133.183 206.19 130.035 202.31 130.035ZM198.631 146.201H186.209V138.974C186.209 137.866 187.116 136.96 188.225 136.96H196.59C197.699 136.96 198.606 137.866 198.606 138.974V146.201H198.631Z" fill="white"/>
<path d="M86.2535 130.035H53.0938C53.0938 132.654 54.5552 134.92 56.697 136.104V153.202C54.5552 154.385 53.0938 156.652 53.0938 159.27H86.2787C90.1843 159.27 93.334 156.123 93.334 152.22V137.111C93.3088 133.208 90.1591 130.035 86.2535 130.035ZM82.1211 150.331C82.1211 151.439 81.214 152.346 80.1053 152.346H67.8846V136.96H80.1053C81.214 136.96 82.1211 137.866 82.1211 138.974V150.331Z" fill="white"/>
<path d="M124.174 71.1372C126.265 61.5432 134.832 54.291 144.987 54.2658C147.633 54.2658 150.228 54.7191 152.672 55.6508C156.603 57.1617 160.005 59.7553 162.449 63.2051C162.726 63.608 163.205 63.8347 163.709 63.7843C165.598 63.5577 167.438 61.1655 168.068 59.0754C168.219 58.597 168.622 58.2444 169.126 58.1689C169.529 58.1185 169.932 58.0682 170.336 58.0682C172.654 58.0682 174.871 59.0754 176.408 60.7877C176.635 61.0395 176.685 61.3669 176.584 61.6691C176.484 61.9209 176.282 62.1223 176.03 62.2231C172.427 63.6836 169.857 66.9571 169.252 70.7847C169.227 71.0365 169.227 71.3135 169.403 71.5149C169.554 71.7164 169.756 71.8171 170.109 71.8171H198.027C196.112 52.5787 179.608 37.6211 159.853 37.6211H101.773V43.0854C101.773 56.7839 111.348 68.2414 124.174 71.1372Z" fill="white"/>
<path d="M169.452 79.7492C169.301 79.9255 169.225 80.2025 169.25 80.4291C169.704 85.3646 173.584 89.3936 178.498 89.998C178.75 90.0231 178.951 90.1994 179.027 90.4512C179.077 90.6778 179.027 90.9045 178.85 91.0556C177.465 92.5161 175.6 93.3219 173.584 93.3219C171.392 93.3219 169.326 92.3398 167.94 90.6527L167.89 90.5771C167.864 90.5519 167.839 90.5016 167.814 90.4764C167.789 90.4512 167.789 90.426 167.764 90.4009L167.839 90.3001L167.738 90.3757C166.504 88.8396 164.79 87.7316 162.926 87.228C162.145 87.0266 161.363 86.9259 160.557 86.9259C155.568 86.9259 151.436 90.98 151.31 95.9659V96.0414L151.234 96.0666C149.244 96.671 147.177 96.9731 145.086 96.9731C139.316 96.9731 133.924 94.7068 129.867 90.6023C126.969 87.6813 125.029 84.0552 124.197 80.127C111.372 83.0228 101.797 94.455 101.797 108.154V113.567H160.23C179.909 113.567 196.111 98.6099 198.051 79.4219H170.208C169.855 79.4471 169.603 79.5981 169.452 79.7492Z" fill="#D12A2F"/>
</svg>
